<svg width="403" height="87" viewBox="0 0 403 87" fill="none" xmlns="http://www.w3.org/2000/svg">
<path d="M25.74 36.83H40.68V54.8C38.46 56.42 36.09 57.61 33.57 58.37C31.07 59.11 28.42 59.48 25.62 59.48C22.04 59.48 18.8 58.93 15.9 57.83C13 56.71 10.52 55.16 8.46 53.18C6.4 51.2 4.81 48.85 3.69 46.13C2.57 43.41 2.01 40.44 2.01 37.22C2.01 33.96 2.54 30.97 3.6 28.25C4.68 25.53 6.21 23.19 8.19 21.23C10.17 19.27 12.56 17.74 15.36 16.64C18.18 15.54 21.33 14.99 24.81 14.99C26.61 14.99 28.29 15.14 29.85 15.44C31.41 15.72 32.85 16.12 34.17 16.64C35.49 17.14 36.7 17.74 37.8 18.44C38.9 19.14 39.9 19.91 40.8 20.75L38.19 24.77C37.79 25.41 37.27 25.8 36.63 25.94C35.99 26.08 35.29 25.92 34.53 25.46C33.81 25.02 33.1 24.63 32.4 24.29C31.72 23.93 30.99 23.62 30.21 23.36C29.43 23.1 28.58 22.9 27.66 22.76C26.74 22.62 25.68 22.55 24.48 22.55C22.46 22.55 20.63 22.9 18.99 23.6C17.35 24.3 15.95 25.29 14.79 26.57C13.65 27.85 12.77 29.39 12.15 31.19C11.53 32.99 11.22 35 11.22 37.22C11.22 39.62 11.56 41.77 12.24 43.67C12.92 45.55 13.88 47.14 15.12 48.44C16.36 49.74 17.84 50.73 19.56 51.41C21.3 52.09 23.23 52.43 25.35 52.43C26.79 52.43 28.07 52.29 29.19 52.01C30.33 51.71 31.44 51.31 32.52 50.81V43.49H27.6C27.02 43.49 26.56 43.34 26.22 43.04C25.9 42.72 25.74 42.32 25.74 41.84V36.83ZM63.008 46.07C60.988 46.17 59.308 46.35 57.968 46.61C56.628 46.85 55.558 47.17 54.758 47.57C53.978 47.97 53.418 48.43 53.078 48.95C52.758 49.45 52.598 50 52.598 50.6C52.598 51.8 52.928 52.65 53.588 53.15C54.268 53.65 55.208 53.9 56.408 53.9C57.788 53.9 58.978 53.66 59.978 53.18C60.998 52.68 62.008 51.91 63.008 50.87V46.07ZM46.148 32.36C47.968 30.72 49.978 29.5 52.178 28.7C54.378 27.88 56.758 27.47 59.318 27.47C61.158 27.47 62.798 27.77 64.238 28.37C65.698 28.97 66.928 29.81 67.928 30.89C68.948 31.95 69.728 33.22 70.268 34.7C70.808 36.18 71.078 37.8 71.078 39.56V59H67.298C66.518 59 65.918 58.89 65.498 58.67C65.098 58.45 64.768 57.99 64.508 57.29L63.848 55.31C63.068 55.99 62.308 56.59 61.568 57.11C60.848 57.63 60.098 58.07 59.318 58.43C58.538 58.77 57.698 59.03 56.798 59.21C55.918 59.39 54.928 59.48 53.828 59.48C52.468 59.48 51.228 59.3 50.108 58.94C48.988 58.58 48.018 58.05 47.198 57.35C46.398 56.63 45.778 55.74 45.338 54.68C44.898 53.62 44.678 52.4 44.678 51.02C44.678 49.88 44.968 48.74 45.548 47.6C46.128 46.46 47.118 45.43 48.518 44.51C49.938 43.57 51.818 42.8 54.158 42.2C56.518 41.58 59.468 41.23 63.008 41.15V39.56C63.008 37.62 62.598 36.2 61.778 35.3C60.958 34.38 59.778 33.92 58.238 33.92C57.098 33.92 56.148 34.06 55.388 34.34C54.628 34.6 53.958 34.89 53.378 35.21C52.818 35.51 52.288 35.8 51.788 36.08C51.288 36.34 50.708 36.47 50.048 36.47C49.468 36.47 48.978 36.33 48.578 36.05C48.198 35.75 47.878 35.4 47.618 35L46.148 32.36ZM77.5411 59V28.07H82.6411C83.6811 28.07 84.3711 28.55 84.7111 29.51L85.1911 31.52C85.7311 30.96 86.2811 30.44 86.8411 29.96C87.4211 29.48 88.0411 29.07 88.7011 28.73C89.3611 28.37 90.0711 28.09 90.8311 27.89C91.6111 27.69 92.4511 27.59 93.3511 27.59C95.2511 27.59 96.8211 28.1 98.0611 29.12C99.3011 30.12 100.241 31.46 100.881 33.14C101.381 32.16 101.991 31.32 102.711 30.62C103.451 29.9 104.251 29.32 105.111 28.88C105.991 28.44 106.911 28.12 107.871 27.92C108.851 27.7 109.831 27.59 110.811 27.59C112.551 27.59 114.091 27.85 115.431 28.37C116.771 28.89 117.891 29.66 118.791 30.68C119.711 31.68 120.411 32.91 120.891 34.37C121.371 35.83 121.611 37.49 121.611 39.35V59H113.331V39.35C113.331 35.73 111.781 33.92 108.681 33.92C107.981 33.92 107.331 34.04 106.731 34.28C106.151 34.5 105.631 34.84 105.171 35.3C104.731 35.76 104.381 36.33 104.121 37.01C103.881 37.69 103.761 38.47 103.761 39.35V59H95.4811V39.35C95.4811 37.39 95.0911 36 94.3111 35.18C93.5511 34.34 92.4211 33.92 90.9211 33.92C89.9611 33.92 89.0511 34.15 88.1911 34.61C87.3511 35.05 86.5611 35.67 85.8211 36.47V59H77.5411ZM147.786 39.89C147.786 39.03 147.666 38.21 147.426 37.43C147.206 36.65 146.846 35.96 146.346 35.36C145.846 34.76 145.216 34.29 144.456 33.95C143.696 33.59 142.786 33.41 141.726 33.41C139.746 33.41 138.196 33.97 137.076 35.09C135.956 36.21 135.226 37.81 134.886 39.89H147.786ZM134.766 44.81C135.026 47.71 135.846 49.83 137.226 51.17C138.626 52.51 140.446 53.18 142.686 53.18C143.826 53.18 144.806 53.05 145.626 52.79C146.466 52.51 147.196 52.21 147.816 51.89C148.456 51.55 149.026 51.25 149.526 50.99C150.046 50.71 150.556 50.57 151.056 50.57C151.696 50.57 152.196 50.81 152.556 51.29L154.956 54.29C154.076 55.31 153.106 56.16 152.046 56.84C150.986 57.5 149.886 58.03 148.746 58.43C147.606 58.81 146.456 59.07 145.296 59.21C144.136 59.37 143.016 59.45 141.936 59.45C139.776 59.45 137.756 59.1 135.876 58.4C134.016 57.68 132.386 56.63 130.986 55.25C129.606 53.85 128.516 52.12 127.716 50.06C126.916 48 126.516 45.61 126.516 42.89C126.516 40.79 126.856 38.81 127.536 36.95C128.236 35.09 129.236 33.47 130.536 32.09C131.836 30.71 133.416 29.62 135.276 28.82C137.136 28 139.236 27.59 141.576 27.59C143.556 27.59 145.376 27.91 147.036 28.55C148.716 29.17 150.156 30.08 151.356 31.28C152.576 32.48 153.516 33.96 154.176 35.72C154.856 37.46 155.196 39.45 155.196 41.69C155.196 42.31 155.166 42.82 155.106 43.22C155.046 43.62 154.946 43.94 154.806 44.18C154.666 44.42 154.476 44.59 154.236 44.69C153.996 44.77 153.686 44.81 153.306 44.81H134.766ZM188.522 27.59C190.842 27.59 192.952 27.96 194.852 28.7C196.752 29.44 198.382 30.5 199.742 31.88C201.102 33.24 202.152 34.9 202.892 36.86C203.632 38.82 204.002 41.03 204.002 43.49C204.002 45.95 203.632 48.17 202.892 50.15C202.152 52.11 201.102 53.78 199.742 55.16C198.382 56.54 196.752 57.6 194.852 58.34C192.952 59.08 190.842 59.45 188.522 59.45C186.182 59.45 184.052 59.08 182.132 58.34C180.232 57.6 178.602 56.54 177.242 55.16C175.882 53.78 174.822 52.11 174.062 50.15C173.322 48.17 172.952 45.95 172.952 43.49C172.952 41.03 173.322 38.82 174.062 36.86C174.822 34.9 175.882 33.24 177.242 31.88C178.602 30.5 180.232 29.44 182.132 28.7C184.052 27.96 186.182 27.59 188.522 27.59ZM188.522 53.24C190.882 53.24 192.632 52.43 193.772 50.81C194.912 49.17 195.482 46.74 195.482 43.52C195.482 40.32 194.912 37.91 193.772 36.29C192.632 34.65 190.882 33.83 188.522 33.83C186.102 33.83 184.322 34.65 183.182 36.29C182.042 37.91 181.472 40.32 181.472 43.52C181.472 46.74 182.042 49.17 183.182 50.81C184.322 52.43 186.102 53.24 188.522 53.24ZM210.631 59V34.01L208.231 33.59C207.611 33.47 207.101 33.25 206.701 32.93C206.321 32.61 206.131 32.15 206.131 31.55V28.25H210.631V26.21C210.631 24.45 210.901 22.86 211.441 21.44C212.001 20 212.791 18.79 213.811 17.81C214.831 16.81 216.081 16.04 217.561 15.5C219.041 14.96 220.711 14.69 222.571 14.69C223.291 14.69 223.971 14.74 224.611 14.84C225.271 14.92 225.931 15.05 226.591 15.23L226.411 19.31C226.371 19.93 226.101 20.34 225.601 20.54C225.121 20.72 224.581 20.81 223.981 20.81C223.141 20.81 222.381 20.9 221.701 21.08C221.041 21.26 220.481 21.57 220.021 22.01C219.561 22.43 219.211 23.01 218.971 23.75C218.731 24.47 218.611 25.37 218.611 26.45V28.25H226.291V34.01H218.881V59H210.631ZM286.804 28.07L277.084 59H270.394C270.054 59 269.744 58.89 269.464 58.67C269.204 58.45 269.004 58.08 268.864 57.56L263.824 40.82C263.624 40.18 263.444 39.55 263.284 38.93C263.144 38.29 263.014 37.65 262.894 37.01C262.754 37.65 262.604 38.3 262.444 38.96C262.304 39.6 262.134 40.24 261.934 40.88L256.834 57.56C256.554 58.52 255.954 59 255.034 59H248.674L238.954 28.07H245.554C246.154 28.07 246.654 28.21 247.054 28.49C247.474 28.77 247.754 29.13 247.894 29.57L251.704 44.87C251.944 45.85 252.154 46.8 252.334 47.72C252.514 48.64 252.684 49.55 252.844 50.45C253.084 49.55 253.334 48.64 253.594 47.72C253.874 46.8 254.164 45.85 254.464 44.87L258.994 29.51C259.134 29.09 259.404 28.74 259.804 28.46C260.204 28.18 260.674 28.04 261.214 28.04H264.874C265.454 28.04 265.944 28.18 266.344 28.46C266.764 28.74 267.044 29.09 267.184 29.51L271.564 44.87C271.844 45.83 272.114 46.78 272.374 47.72C272.634 48.64 272.874 49.57 273.094 50.51C273.254 49.59 273.424 48.67 273.604 47.75C273.804 46.81 274.034 45.85 274.294 44.87L278.284 29.57C278.424 29.13 278.694 28.77 279.094 28.49C279.494 28.21 279.964 28.07 280.504 28.07H286.804ZM304.011 27.59C306.331 27.59 308.441 27.96 310.341 28.7C312.241 29.44 313.871 30.5 315.231 31.88C316.591 33.24 317.641 34.9 318.381 36.86C319.121 38.82 319.491 41.03 319.491 43.49C319.491 45.95 319.121 48.17 318.381 50.15C317.641 52.11 316.591 53.78 315.231 55.16C313.871 56.54 312.241 57.6 310.341 58.34C308.441 59.08 306.331 59.45 304.011 59.45C301.671 59.45 299.541 59.08 297.621 58.34C295.721 57.6 294.091 56.54 292.731 55.16C291.371 53.78 290.311 52.11 289.551 50.15C288.811 48.17 288.441 45.95 288.441 43.49C288.441 41.03 288.811 38.82 289.551 36.86C290.311 34.9 291.371 33.24 292.731 31.88C294.091 30.5 295.721 29.44 297.621 28.7C299.541 27.96 301.671 27.59 304.011 27.59ZM304.011 53.24C306.371 53.24 308.121 52.43 309.261 50.81C310.401 49.17 310.971 46.74 310.971 43.52C310.971 40.32 310.401 37.91 309.261 36.29C308.121 34.65 306.371 33.83 304.011 33.83C301.591 33.83 299.811 34.65 298.671 36.29C297.531 37.91 296.961 40.32 296.961 43.52C296.961 46.74 297.531 49.17 298.671 50.81C299.811 52.43 301.591 53.24 304.011 53.24ZM332.46 33.17C333.44 31.41 334.57 30.02 335.85 29C337.13 27.98 338.63 27.47 340.35 27.47C341.75 27.47 342.89 27.8 343.77 28.46L343.23 34.58C343.13 34.98 342.97 35.26 342.75 35.42C342.55 35.56 342.27 35.63 341.91 35.63C341.59 35.63 341.13 35.59 340.53 35.51C339.93 35.41 339.37 35.36 338.85 35.36C338.09 35.36 337.41 35.47 336.81 35.69C336.23 35.91 335.71 36.22 335.25 36.62C334.79 37.02 334.37 37.51 333.99 38.09C333.63 38.67 333.29 39.33 332.97 40.07V59H324.69V28.07H329.58C330.42 28.07 331 28.22 331.32 28.52C331.64 28.82 331.87 29.34 332.01 30.08L332.46 33.17ZM365.772 36.11C364.992 35.21 364.142 34.58 363.222 34.22C362.322 33.86 361.362 33.68 360.342 33.68C359.342 33.68 358.432 33.87 357.612 34.25C356.792 34.63 356.082 35.23 355.482 36.05C354.902 36.85 354.452 37.88 354.132 39.14C353.812 40.4 353.652 41.9 353.652 43.64C353.652 45.36 353.782 46.82 354.042 48.02C354.302 49.22 354.672 50.19 355.152 50.93C355.652 51.67 356.252 52.21 356.952 52.55C357.652 52.87 358.432 53.03 359.292 53.03C360.752 53.03 361.972 52.74 362.952 52.16C363.952 51.58 364.892 50.76 365.772 49.7V36.11ZM374.052 14.27V59H368.952C367.892 59 367.212 58.52 366.912 57.56L366.222 54.86C365.602 55.54 364.942 56.16 364.242 56.72C363.562 57.28 362.822 57.77 362.022 58.19C361.222 58.59 360.362 58.9 359.442 59.12C358.522 59.34 357.522 59.45 356.442 59.45C354.782 59.45 353.262 59.1 351.882 58.4C350.502 57.7 349.302 56.68 348.282 55.34C347.282 53.98 346.502 52.32 345.942 50.36C345.382 48.4 345.102 46.16 345.102 43.64C345.102 41.34 345.412 39.2 346.032 37.22C346.672 35.24 347.572 33.53 348.732 32.09C349.892 30.65 351.292 29.52 352.932 28.7C354.572 27.88 356.392 27.47 358.392 27.47C360.072 27.47 361.482 27.72 362.622 28.22C363.782 28.72 364.832 29.4 365.772 30.26V14.27H374.052ZM400.17 34.43C399.95 34.77 399.72 35.02 399.48 35.18C399.26 35.32 398.95 35.39 398.55 35.39C398.15 35.39 397.74 35.29 397.32 35.09C396.9 34.89 396.43 34.68 395.91 34.46C395.39 34.22 394.79 34 394.11 33.8C393.45 33.6 392.68 33.5 391.8 33.5C390.46 33.5 389.42 33.78 388.68 34.34C387.94 34.88 387.57 35.6 387.57 36.5C387.57 37.12 387.78 37.64 388.2 38.06C388.62 38.48 389.17 38.85 389.85 39.17C390.55 39.47 391.34 39.76 392.22 40.04C393.1 40.3 394 40.59 394.92 40.91C395.86 41.23 396.77 41.6 397.65 42.02C398.53 42.44 399.31 42.97 399.99 43.61C400.69 44.23 401.25 44.99 401.67 45.89C402.09 46.77 402.3 47.84 402.3 49.1C402.3 50.6 402.02 51.99 401.46 53.27C400.92 54.53 400.12 55.62 399.06 56.54C398 57.46 396.68 58.18 395.1 58.7C393.52 59.22 391.7 59.48 389.64 59.48C388.58 59.48 387.53 59.38 386.49 59.18C385.45 59 384.46 58.74 383.52 58.4C382.58 58.04 381.7 57.63 380.88 57.17C380.06 56.71 379.35 56.21 378.75 55.67L380.67 52.58C380.89 52.22 381.16 51.94 381.48 51.74C381.82 51.54 382.25 51.44 382.77 51.44C383.27 51.44 383.73 51.57 384.15 51.83C384.57 52.07 385.04 52.34 385.56 52.64C386.08 52.92 386.69 53.19 387.39 53.45C388.11 53.69 389 53.81 390.06 53.81C390.86 53.81 391.55 53.72 392.13 53.54C392.71 53.36 393.18 53.12 393.54 52.82C393.9 52.5 394.16 52.15 394.32 51.77C394.5 51.37 394.59 50.96 394.59 50.54C394.59 49.86 394.37 49.31 393.93 48.89C393.51 48.45 392.95 48.07 392.25 47.75C391.57 47.43 390.78 47.14 389.88 46.88C388.98 46.62 388.06 46.33 387.12 46.01C386.2 45.69 385.29 45.31 384.39 44.87C383.51 44.43 382.72 43.88 382.02 43.22C381.34 42.54 380.78 41.71 380.34 40.73C379.92 39.75 379.71 38.56 379.71 37.16C379.71 35.88 379.96 34.67 380.46 33.53C380.96 32.37 381.71 31.35 382.71 30.47C383.71 29.59 384.95 28.89 386.43 28.37C387.93 27.85 389.66 27.59 391.62 27.59C393.82 27.59 395.82 27.95 397.62 28.67C399.42 29.39 400.9 30.33 402.06 31.49L400.17 34.43ZM9.012 86.844C8.7 86.484 8.36 86.232 7.992 86.088C7.632 85.944 7.248 85.872 6.84 85.872C6.44 85.872 6.076 85.948 5.748 86.1C5.42 86.252 5.136 86.492 4.896 86.82C4.664 87.14 4.484 87.552 4.356 88.056C4.228 88.56 4.164 89.16 4.164 89.856C4.164 90.544 4.216 91.128 4.32 91.608C4.424 92.088 4.572 92.476 4.764 92.772C4.964 93.068 5.204 93.284 5.484 93.42C5.764 93.548 6.076 93.612 6.42 93.612C7.004 93.612 7.492 93.496 7.884 93.264C8.284 93.032 8.66 92.704 9.012 92.28V86.844ZM12.324 78.108V96H10.284C9.86 96 9.588 95.808 9.468 95.424L9.192 94.344C8.944 94.616 8.68 94.864 8.4 95.088C8.128 95.312 7.832 95.508 7.512 95.676C7.192 95.836 6.848 95.96 6.48 96.048C6.112 96.136 5.712 96.18 5.28 96.18C4.616 96.18 4.008 96.04 3.456 95.76C2.904 95.48 2.424 95.072 2.016 94.536C1.616 93.992 1.304 93.328 1.08 92.544C0.856 91.76 0.744 90.864 0.744 89.856C0.744 88.936 0.868 88.08 1.116 87.288C1.372 86.496 1.732 85.812 2.196 85.236C2.66 84.66 3.22 84.208 3.876 83.88C4.532 83.552 5.26 83.388 6.06 83.388C6.732 83.388 7.296 83.488 7.752 83.688C8.216 83.888 8.636 84.16 9.012 84.504V78.108H12.324ZM22.9269 88.356C22.9269 88.012 22.8789 87.684 22.7829 87.372C22.6949 87.06 22.5509 86.784 22.3509 86.544C22.1509 86.304 21.8989 86.116 21.5949 85.98C21.2909 85.836 20.9269 85.764 20.5029 85.764C19.7109 85.764 19.0909 85.988 18.6429 86.436C18.1949 86.884 17.9029 87.524 17.7669 88.356H22.9269ZM17.7189 90.324C17.8229 91.484 18.1509 92.332 18.7029 92.868C19.2629 93.404 19.9909 93.672 20.8869 93.672C21.3429 93.672 21.7349 93.62 22.0629 93.516C22.3989 93.404 22.6909 93.284 22.9389 93.156C23.1949 93.02 23.4229 92.9 23.6229 92.796C23.8309 92.684 24.0349 92.628 24.2349 92.628C24.4909 92.628 24.6909 92.724 24.8349 92.916L25.7949 94.116C25.4429 94.524 25.0549 94.864 24.6309 95.136C24.2069 95.4 23.7669 95.612 23.3109 95.772C22.8549 95.924 22.3949 96.028 21.9309 96.084C21.4669 96.148 21.0189 96.18 20.5869 96.18C19.7229 96.18 18.9149 96.04 18.1629 95.76C17.4189 95.472 16.7669 95.052 16.2069 94.5C15.6549 93.94 15.2189 93.248 14.8989 92.424C14.5789 91.6 14.4189 90.644 14.4189 89.556C14.4189 88.716 14.5549 87.924 14.8269 87.18C15.1069 86.436 15.5069 85.788 16.0269 85.236C16.5469 84.684 17.1789 84.248 17.9229 83.928C18.6669 83.6 19.5069 83.436 20.4429 83.436C21.2349 83.436 21.9629 83.564 22.6269 83.82C23.2989 84.068 23.8749 84.432 24.3549 84.912C24.8429 85.392 25.2189 85.984 25.4829 86.688C25.7549 87.384 25.8909 88.18 25.8909 89.076C25.8909 89.324 25.8789 89.528 25.8549 89.688C25.8309 89.848 25.7909 89.976 25.7349 90.072C25.6789 90.168 25.6029 90.236 25.5069 90.276C25.4109 90.308 25.2869 90.324 25.1349 90.324H17.7189ZM35.6381 86.172C35.5501 86.308 35.4581 86.408 35.3621 86.472C35.2741 86.528 35.1501 86.556 34.9901 86.556C34.8301 86.556 34.6661 86.516 34.4981 86.436C34.3301 86.356 34.1421 86.272 33.9341 86.184C33.7261 86.088 33.4861 86 33.2141 85.92C32.9501 85.84 32.6421 85.8 32.2901 85.8C31.7541 85.8 31.3381 85.912 31.0421 86.136C30.7461 86.352 30.5981 86.64 30.5981 87C30.5981 87.248 30.6821 87.456 30.8501 87.624C31.0181 87.792 31.2381 87.94 31.5101 88.068C31.7901 88.188 32.1061 88.304 32.4581 88.416C32.8101 88.52 33.1701 88.636 33.5381 88.764C33.9141 88.892 34.2781 89.04 34.6301 89.208C34.9821 89.376 35.2941 89.588 35.5661 89.844C35.8461 90.092 36.0701 90.396 36.2381 90.756C36.4061 91.108 36.4901 91.536 36.4901 92.04C36.4901 92.64 36.3781 93.196 36.1541 93.708C35.9381 94.212 35.6181 94.648 35.1941 95.016C34.7701 95.384 34.2421 95.672 33.6101 95.88C32.9781 96.088 32.2501 96.192 31.4261 96.192C31.0021 96.192 30.5821 96.152 30.1661 96.072C29.7501 96 29.3541 95.896 28.9781 95.76C28.6021 95.616 28.2501 95.452 27.9221 95.268C27.5941 95.084 27.3101 94.884 27.0701 94.668L27.8381 93.432C27.9261 93.288 28.0341 93.176 28.1621 93.096C28.2981 93.016 28.4701 92.976 28.6781 92.976C28.8781 92.976 29.0621 93.028 29.2301 93.132C29.3981 93.228 29.5861 93.336 29.7941 93.456C30.0021 93.568 30.2461 93.676 30.5261 93.78C30.8141 93.876 31.1701 93.924 31.5941 93.924C31.9141 93.924 32.1901 93.888 32.4221 93.816C32.6541 93.744 32.8421 93.648 32.9861 93.528C33.1301 93.4 33.2341 93.26 33.2981 93.108C33.3701 92.948 33.4061 92.784 33.4061 92.616C33.4061 92.344 33.3181 92.124 33.1421 91.956C32.9741 91.78 32.7501 91.628 32.4701 91.5C32.1981 91.372 31.8821 91.256 31.5221 91.152C31.1621 91.048 30.7941 90.932 30.4181 90.804C30.0501 90.676 29.6861 90.524 29.3261 90.348C28.9741 90.172 28.6581 89.952 28.3781 89.688C28.1061 89.416 27.8821 89.084 27.7061 88.692C27.5381 88.3 27.4541 87.824 27.4541 87.264C27.4541 86.752 27.5541 86.268 27.7541 85.812C27.9541 85.348 28.2541 84.94 28.6541 84.588C29.0541 84.236 29.5501 83.956 30.1421 83.748C30.7421 83.54 31.4341 83.436 32.2181 83.436C33.0981 83.436 33.8981 83.58 34.6181 83.868C35.3381 84.156 35.9301 84.532 36.3941 84.996L35.6381 86.172ZM41.9713 83.628V96H38.6593V83.628H41.9713ZM42.3673 80.112C42.3673 80.392 42.3113 80.652 42.1993 80.892C42.0873 81.132 41.9353 81.344 41.7433 81.528C41.5593 81.712 41.3393 81.856 41.0833 81.96C40.8353 82.064 40.5673 82.116 40.2793 82.116C40.0073 82.116 39.7473 82.064 39.4993 81.96C39.2593 81.856 39.0473 81.712 38.8633 81.528C38.6793 81.344 38.5313 81.132 38.4193 80.892C38.3153 80.652 38.2633 80.392 38.2633 80.112C38.2633 79.832 38.3153 79.572 38.4193 79.332C38.5313 79.084 38.6793 78.868 38.8633 78.684C39.0473 78.5 39.2593 78.356 39.4993 78.252C39.7473 78.148 40.0073 78.096 40.2793 78.096C40.5673 78.096 40.8353 78.148 41.0833 78.252C41.3393 78.356 41.5593 78.5 41.7433 78.684C41.9353 78.868 42.0873 79.084 42.1993 79.332C42.3113 79.572 42.3673 79.832 42.3673 80.112ZM49.4057 89.352C50.0857 89.352 50.5857 89.18 50.9057 88.836C51.2337 88.492 51.3977 88.048 51.3977 87.504C51.3977 86.936 51.2337 86.492 50.9057 86.172C50.5857 85.844 50.0857 85.68 49.4057 85.68C48.7257 85.68 48.2257 85.844 47.9057 86.172C47.5857 86.492 47.4257 86.936 47.4257 87.504C47.4257 88.04 47.5857 88.484 47.9057 88.836C48.2337 89.18 48.7337 89.352 49.4057 89.352ZM52.5377 96.504C52.5377 96.288 52.4697 96.112 52.3337 95.976C52.1977 95.84 52.0137 95.732 51.7817 95.652C51.5577 95.572 51.2897 95.516 50.9777 95.484C50.6657 95.444 50.3337 95.416 49.9817 95.4C49.6297 95.376 49.2657 95.356 48.8897 95.34C48.5137 95.324 48.1457 95.296 47.7857 95.256C47.5057 95.424 47.2737 95.624 47.0897 95.856C46.9137 96.08 46.8257 96.336 46.8257 96.624C46.8257 96.824 46.8697 97.008 46.9577 97.176C47.0537 97.344 47.2097 97.488 47.4257 97.608C47.6417 97.728 47.9257 97.82 48.2777 97.884C48.6297 97.956 49.0697 97.992 49.5977 97.992C50.1417 97.992 50.6017 97.956 50.9777 97.884C51.3537 97.812 51.6577 97.708 51.8897 97.572C52.1217 97.444 52.2857 97.288 52.3817 97.104C52.4857 96.92 52.5377 96.72 52.5377 96.504ZM55.8257 84.036V85.248C55.8257 85.44 55.7697 85.592 55.6577 85.704C55.5537 85.816 55.3777 85.9 55.1297 85.956L54.1217 86.16C54.2577 86.552 54.3257 86.972 54.3257 87.42C54.3257 88.036 54.1977 88.592 53.9417 89.088C53.6937 89.576 53.3497 89.996 52.9097 90.348C52.4697 90.692 51.9497 90.96 51.3497 91.152C50.7497 91.336 50.1017 91.428 49.4057 91.428C48.9657 91.428 48.5537 91.392 48.1697 91.32C47.8337 91.528 47.6657 91.756 47.6657 92.004C47.6657 92.236 47.7777 92.404 48.0017 92.508C48.2337 92.612 48.5337 92.688 48.9017 92.736C49.2777 92.776 49.7017 92.804 50.1737 92.82C50.6537 92.828 51.1377 92.852 51.6257 92.892C52.1217 92.932 52.6057 93.004 53.0777 93.108C53.5577 93.204 53.9817 93.368 54.3497 93.6C54.7257 93.824 55.0257 94.124 55.2497 94.5C55.4817 94.876 55.5977 95.36 55.5977 95.952C55.5977 96.504 55.4617 97.04 55.1897 97.56C54.9177 98.08 54.5217 98.544 54.0017 98.952C53.4897 99.36 52.8577 99.688 52.1057 99.936C51.3537 100.184 50.4977 100.308 49.5377 100.308C48.5857 100.308 47.7577 100.216 47.0537 100.032C46.3577 99.856 45.7777 99.616 45.3137 99.312C44.8577 99.016 44.5177 98.672 44.2937 98.28C44.0697 97.888 43.9577 97.48 43.9577 97.056C43.9577 96.504 44.1257 96.036 44.4617 95.652C44.7977 95.268 45.2617 94.96 45.8537 94.728C45.5417 94.552 45.2897 94.324 45.0977 94.044C44.9137 93.756 44.8217 93.384 44.8217 92.928C44.8217 92.56 44.9537 92.172 45.2177 91.764C45.4897 91.356 45.9057 91.016 46.4657 90.744C45.8337 90.408 45.3337 89.96 44.9657 89.4C44.5977 88.832 44.4137 88.172 44.4137 87.42C44.4137 86.804 44.5377 86.248 44.7857 85.752C45.0417 85.256 45.3937 84.836 45.8417 84.492C46.2897 84.14 46.8177 83.872 47.4257 83.688C48.0337 83.504 48.6937 83.412 49.4057 83.412C50.4617 83.412 51.3937 83.62 52.2017 84.036H55.8257ZM60.6197 85.068C60.8677 84.828 61.1237 84.608 61.3877 84.408C61.6597 84.208 61.9437 84.036 62.2397 83.892C62.5437 83.748 62.8677 83.636 63.2117 83.556C63.5637 83.476 63.9437 83.436 64.3517 83.436C65.0237 83.436 65.6197 83.552 66.1397 83.784C66.6597 84.016 67.0957 84.34 67.4477 84.756C67.8077 85.172 68.0757 85.668 68.2517 86.244C68.4357 86.82 68.5277 87.452 68.5277 88.14V96H65.2277V88.14C65.2277 87.452 65.0677 86.92 64.7477 86.544C64.4277 86.16 63.9557 85.968 63.3317 85.968C62.8677 85.968 62.4317 86.068 62.0237 86.268C61.6157 86.468 61.2277 86.748 60.8597 87.108V96H57.5477V83.628H59.5877C60.0037 83.628 60.2797 83.82 60.4157 84.204L60.6197 85.068ZM79.0129 88.356C79.0129 88.012 78.9649 87.684 78.8689 87.372C78.7809 87.06 78.6369 86.784 78.4369 86.544C78.2369 86.304 77.9849 86.116 77.6809 85.98C77.3769 85.836 77.0129 85.764 76.5889 85.764C75.7969 85.764 75.1769 85.988 74.7289 86.436C74.2809 86.884 73.9889 87.524 73.8529 88.356H79.0129ZM73.8049 90.324C73.9089 91.484 74.2369 92.332 74.7889 92.868C75.3489 93.404 76.0769 93.672 76.9729 93.672C77.4289 93.672 77.8209 93.62 78.1489 93.516C78.4849 93.404 78.7769 93.284 79.0249 93.156C79.2809 93.02 79.5089 92.9 79.7089 92.796C79.9169 92.684 80.1209 92.628 80.3209 92.628C80.5769 92.628 80.7769 92.724 80.9209 92.916L81.8809 94.116C81.5289 94.524 81.1409 94.864 80.7169 95.136C80.2929 95.4 79.8529 95.612 79.3969 95.772C78.9409 95.924 78.4809 96.028 78.0169 96.084C77.5529 96.148 77.1049 96.18 76.6729 96.18C75.8089 96.18 75.0009 96.04 74.2489 95.76C73.5049 95.472 72.8529 95.052 72.2929 94.5C71.7409 93.94 71.3049 93.248 70.9849 92.424C70.6649 91.6 70.5049 90.644 70.5049 89.556C70.5049 88.716 70.6409 87.924 70.9129 87.18C71.1929 86.436 71.5929 85.788 72.1129 85.236C72.6329 84.684 73.2649 84.248 74.0089 83.928C74.7529 83.6 75.5929 83.436 76.5289 83.436C77.3209 83.436 78.0489 83.564 78.7129 83.82C79.3849 84.068 79.9609 84.432 80.4409 84.912C80.9289 85.392 81.3049 85.984 81.5689 86.688C81.8409 87.384 81.9769 88.18 81.9769 89.076C81.9769 89.324 81.9649 89.528 81.9409 89.688C81.9169 89.848 81.8769 89.976 81.8209 90.072C81.7649 90.168 81.6889 90.236 81.5929 90.276C81.4969 90.308 81.3729 90.324 81.2209 90.324H73.8049ZM91.6761 86.844C91.3641 86.484 91.0241 86.232 90.6561 86.088C90.2961 85.944 89.9121 85.872 89.5041 85.872C89.1041 85.872 88.7401 85.948 88.4121 86.1C88.0841 86.252 87.8001 86.492 87.5601 86.82C87.3281 87.14 87.1481 87.552 87.0201 88.056C86.8921 88.56 86.8281 89.16 86.8281 89.856C86.8281 90.544 86.8801 91.128 86.9841 91.608C87.0881 92.088 87.2361 92.476 87.4281 92.772C87.6281 93.068 87.8681 93.284 88.1481 93.42C88.4281 93.548 88.7401 93.612 89.0841 93.612C89.6681 93.612 90.1561 93.496 90.5481 93.264C90.9481 93.032 91.3241 92.704 91.6761 92.28V86.844ZM94.9881 78.108V96H92.9481C92.5241 96 92.2521 95.808 92.1321 95.424L91.8561 94.344C91.6081 94.616 91.3441 94.864 91.0641 95.088C90.7921 95.312 90.4961 95.508 90.1761 95.676C89.8561 95.836 89.5121 95.96 89.1441 96.048C88.7761 96.136 88.3761 96.18 87.9441 96.18C87.2801 96.18 86.6721 96.04 86.1201 95.76C85.5681 95.48 85.0881 95.072 84.6801 94.536C84.2801 93.992 83.9681 93.328 83.7441 92.544C83.5201 91.76 83.4081 90.864 83.4081 89.856C83.4081 88.936 83.5321 88.08 83.7801 87.288C84.0361 86.496 84.3961 85.812 84.8601 85.236C85.3241 84.66 85.8841 84.208 86.5401 83.88C87.1961 83.552 87.9241 83.388 88.7241 83.388C89.3961 83.388 89.9601 83.488 90.4161 83.688C90.8801 83.888 91.3001 84.16 91.6761 84.504V78.108H94.9881ZM107.71 96.192C107.15 96.192 106.654 96.112 106.222 95.952C105.79 95.784 105.426 95.548 105.13 95.244C104.834 94.94 104.61 94.572 104.458 94.14C104.306 93.708 104.23 93.22 104.23 92.676V86.004H103.066C102.89 86.004 102.738 85.948 102.61 85.836C102.49 85.724 102.43 85.556 102.43 85.332V84.036L104.41 83.676L105.082 80.472C105.17 80.112 105.414 79.932 105.814 79.932H107.542V83.7H110.734V86.004H107.542V92.46C107.542 92.804 107.622 93.076 107.782 93.276C107.95 93.476 108.186 93.576 108.49 93.576C108.65 93.576 108.786 93.56 108.898 93.528C109.01 93.488 109.106 93.448 109.186 93.408C109.266 93.36 109.338 93.32 109.402 93.288C109.474 93.248 109.546 93.228 109.618 93.228C109.714 93.228 109.794 93.252 109.858 93.3C109.922 93.34 109.986 93.412 110.05 93.516L111.046 95.1C110.59 95.46 110.074 95.732 109.498 95.916C108.922 96.1 108.326 96.192 107.71 96.192ZM117.971 83.436C118.899 83.436 119.743 83.584 120.503 83.88C121.263 84.176 121.915 84.6 122.459 85.152C123.003 85.696 123.423 86.36 123.719 87.144C124.015 87.928 124.163 88.812 124.163 89.796C124.163 90.78 124.015 91.668 123.719 92.46C123.423 93.244 123.003 93.912 122.459 94.464C121.915 95.016 121.263 95.44 120.503 95.736C119.743 96.032 118.899 96.18 117.971 96.18C117.035 96.18 116.183 96.032 115.415 95.736C114.655 95.44 114.003 95.016 113.459 94.464C112.915 93.912 112.491 93.244 112.187 92.46C111.891 91.668 111.743 90.78 111.743 89.796C111.743 88.812 111.891 87.928 112.187 87.144C112.491 86.36 112.915 85.696 113.459 85.152C114.003 84.6 114.655 84.176 115.415 83.88C116.183 83.584 117.035 83.436 117.971 83.436ZM117.971 93.696C118.915 93.696 119.615 93.372 120.071 92.724C120.527 92.068 120.755 91.096 120.755 89.808C120.755 88.528 120.527 87.564 120.071 86.916C119.615 86.26 118.915 85.932 117.971 85.932C117.003 85.932 116.291 86.26 115.835 86.916C115.379 87.564 115.151 88.528 115.151 89.808C115.151 91.096 115.379 92.068 115.835 92.724C116.291 93.372 117.003 93.696 117.971 93.696ZM142.798 83.628V96H140.758C140.334 96 140.062 95.808 139.942 95.424L139.726 94.56C139.478 94.8 139.222 95.02 138.958 95.22C138.694 95.42 138.41 95.592 138.106 95.736C137.81 95.88 137.486 95.992 137.134 96.072C136.79 96.152 136.414 96.192 136.006 96.192C135.334 96.192 134.734 96.076 134.206 95.844C133.686 95.612 133.25 95.288 132.898 94.872C132.546 94.456 132.278 93.96 132.094 93.384C131.91 92.808 131.818 92.176 131.818 91.488V83.628H135.13V91.488C135.13 92.176 135.286 92.712 135.598 93.096C135.918 93.472 136.39 93.66 137.014 93.66C137.478 93.66 137.914 93.56 138.322 93.36C138.73 93.152 139.118 92.872 139.486 92.52V83.628H142.798ZM148.604 85.068C148.852 84.828 149.108 84.608 149.372 84.408C149.644 84.208 149.928 84.036 150.224 83.892C150.528 83.748 150.852 83.636 151.196 83.556C151.548 83.476 151.928 83.436 152.336 83.436C153.008 83.436 153.604 83.552 154.124 83.784C154.644 84.016 155.08 84.34 155.432 84.756C155.792 85.172 156.06 85.668 156.236 86.244C156.42 86.82 156.512 87.452 156.512 88.14V96H153.212V88.14C153.212 87.452 153.052 86.92 152.732 86.544C152.412 86.16 151.94 85.968 151.316 85.968C150.852 85.968 150.416 86.068 150.008 86.268C149.6 86.468 149.212 86.748 148.844 87.108V96H145.532V83.628H147.572C147.988 83.628 148.264 83.82 148.4 84.204L148.604 85.068ZM162.557 83.628V96H159.245V83.628H162.557ZM162.953 80.112C162.953 80.392 162.897 80.652 162.785 80.892C162.673 81.132 162.521 81.344 162.329 81.528C162.145 81.712 161.925 81.856 161.669 81.96C161.421 82.064 161.153 82.116 160.865 82.116C160.593 82.116 160.333 82.064 160.085 81.96C159.845 81.856 159.633 81.712 159.449 81.528C159.265 81.344 159.117 81.132 159.005 80.892C158.901 80.652 158.849 80.392 158.849 80.112C158.849 79.832 158.901 79.572 159.005 79.332C159.117 79.084 159.265 78.868 159.449 78.684C159.633 78.5 159.845 78.356 160.085 78.252C160.333 78.148 160.593 78.096 160.865 78.096C161.153 78.096 161.421 78.148 161.669 78.252C161.925 78.356 162.145 78.5 162.329 78.684C162.521 78.868 162.673 79.084 162.785 79.332C162.897 79.572 162.953 79.832 162.953 80.112ZM169.656 96.192C169.096 96.192 168.6 96.112 168.168 95.952C167.736 95.784 167.372 95.548 167.076 95.244C166.78 94.94 166.556 94.572 166.404 94.14C166.252 93.708 166.176 93.22 166.176 92.676V86.004H165.012C164.836 86.004 164.684 85.948 164.556 85.836C164.436 85.724 164.376 85.556 164.376 85.332V84.036L166.356 83.676L167.028 80.472C167.116 80.112 167.36 79.932 167.76 79.932H169.488V83.7H172.68V86.004H169.488V92.46C169.488 92.804 169.568 93.076 169.728 93.276C169.896 93.476 170.132 93.576 170.436 93.576C170.596 93.576 170.732 93.56 170.844 93.528C170.956 93.488 171.052 93.448 171.132 93.408C171.212 93.36 171.284 93.32 171.348 93.288C171.42 93.248 171.492 93.228 171.564 93.228C171.66 93.228 171.74 93.252 171.804 93.3C171.868 93.34 171.932 93.412 171.996 93.516L172.992 95.1C172.536 95.46 172.02 95.732 171.444 95.916C170.868 96.1 170.272 96.192 169.656 96.192ZM182.185 88.356C182.185 88.012 182.137 87.684 182.041 87.372C181.953 87.06 181.809 86.784 181.609 86.544C181.409 86.304 181.157 86.116 180.853 85.98C180.549 85.836 180.185 85.764 179.761 85.764C178.969 85.764 178.349 85.988 177.901 86.436C177.453 86.884 177.161 87.524 177.025 88.356H182.185ZM176.977 90.324C177.081 91.484 177.409 92.332 177.961 92.868C178.521 93.404 179.249 93.672 180.145 93.672C180.601 93.672 180.993 93.62 181.321 93.516C181.657 93.404 181.949 93.284 182.197 93.156C182.453 93.02 182.681 92.9 182.881 92.796C183.089 92.684 183.293 92.628 183.493 92.628C183.749 92.628 183.949 92.724 184.093 92.916L185.053 94.116C184.701 94.524 184.313 94.864 183.889 95.136C183.465 95.4 183.025 95.612 182.569 95.772C182.113 95.924 181.653 96.028 181.189 96.084C180.725 96.148 180.277 96.18 179.845 96.18C178.981 96.18 178.173 96.04 177.421 95.76C176.677 95.472 176.025 95.052 175.465 94.5C174.913 93.94 174.477 93.248 174.157 92.424C173.837 91.6 173.677 90.644 173.677 89.556C173.677 88.716 173.813 87.924 174.085 87.18C174.365 86.436 174.765 85.788 175.285 85.236C175.805 84.684 176.437 84.248 177.181 83.928C177.925 83.6 178.765 83.436 179.701 83.436C180.493 83.436 181.221 83.564 181.885 83.82C182.557 84.068 183.133 84.432 183.613 84.912C184.101 85.392 184.477 85.984 184.741 86.688C185.013 87.384 185.149 88.18 185.149 89.076C185.149 89.324 185.137 89.528 185.113 89.688C185.089 89.848 185.049 89.976 184.993 90.072C184.937 90.168 184.861 90.236 184.765 90.276C184.669 90.308 184.545 90.324 184.393 90.324H176.977Z" transform="translate(0 -14)" fill="black"/>
</svg>
